<?xml version="1.0" encoding="utf-8"?>
<!-- Generator: Adobe Illustrator 22.0.0, SVG Export Plug-In . SVG Version: 6.00 Build 0)  -->
<svg version="1.1" id="Layer_1" xmlns="http://www.w3.org/2000/svg" xmlns:xlink="http://www.w3.org/1999/xlink" x="0px" y="0px"
	 viewBox="0 0 100 100" style="enable-background:new 0 0 100 100;" xml:space="preserve">
<style type="text/css">
	.st0{fill:#CDB280;}
</style>
<title>Bookmark, favorite, full, rate, save, star, interface</title>
<g>
	<path class="st0" d="M67,58.4c-0.1,0-0.1,0.1-0.1,0.2l8.9,26.8c0.3,1-0.2,2.2-1.3,2.5c-0.6,0.2-1.3,0.1-1.8-0.3L50.1,70.9
		c-0.1,0-0.1,0-0.2,0L27.2,87.6c-0.9,0.7-2.1,0.5-2.8-0.4c-0.4-0.5-0.5-1.2-0.3-1.8L33,58.6c0-0.1,0-0.1-0.1-0.2L12.8,43.6
		c-0.9-0.7-1.1-1.9-0.4-2.8c0.4-0.5,1-0.8,1.6-0.8h25.1c0.1,0,0.1,0,0.1-0.1l8.8-26.5c0.4-1.1,1.5-1.6,2.5-1.3
		c0.6,0.2,1.1,0.7,1.3,1.3l8.8,26.5c0,0.1,0.1,0.1,0.1,0.1H86c1.1,0,2,0.9,2,2c0,0.6-0.3,1.2-0.8,1.6L67,58.4z"/>
</g>
</svg>
