<?xml version="1.0" encoding="utf-8"?>
<!-- Generator: Adobe Illustrator 22.0.0, SVG Export Plug-In . SVG Version: 6.00 Build 0)  -->
<svg version="1.1" id="Layer_1" xmlns="http://www.w3.org/2000/svg" xmlns:xlink="http://www.w3.org/1999/xlink" x="0px" y="0px"
	 viewBox="0 0 100 100" style="enable-background:new 0 0 100 100;" xml:space="preserve">
<style type="text/css">
	.st0{fill:#CDB280;}
</style>
<title>Bookmark, favorite, full, rate, save, star, interface</title>
<path class="st0" d="M50,23.5l6,18c0.7,2.1,2.7,3.5,4.9,3.5h16l-12.8,9.4c-1.8,1.3-2.6,3.7-1.8,5.8l6,17.9L53,66.9
	c-0.9-0.6-1.9-1-3-1c-1.1,0-2.1,0.3-3,1L31.8,78l5.9-17.8c0.7-2.1,0-4.5-1.8-5.8L23.2,45h15.9c0,0,0,0,0,0c2.2,0,4.2-1.4,4.9-3.5
	L50,23.5 M50,12c-0.8,0-1.6,0.5-1.9,1.4l-8.8,26.5c0,0.1-0.1,0.1-0.1,0.1H14c-0.6,0-1.2,0.3-1.6,0.8c-0.7,0.9-0.5,2.1,0.4,2.8
	L33,58.4c0.1,0,0.1,0.1,0.1,0.2l-8.9,26.8c-0.2,0.6-0.1,1.3,0.3,1.8c0.4,0.5,1,0.8,1.6,0.8c0.4,0,0.8-0.1,1.2-0.4l22.7-16.7
	c0,0,0.1,0,0.1,0c0,0,0.1,0,0.1,0l22.7,16.7c0.3,0.3,0.8,0.4,1.2,0.4c0.2,0,0.4,0,0.6-0.1c1-0.3,1.6-1.5,1.3-2.5L67,58.6
	c0-0.1,0-0.1,0.1-0.2l20.2-14.8c0.5-0.4,0.8-1,0.8-1.6c0-1.1-0.9-2-2-2c0,0,0,0,0,0H60.9c0,0,0,0,0,0c-0.1,0-0.1,0-0.1-0.1
	l-8.8-26.5c-0.2-0.6-0.7-1.1-1.3-1.3C50.4,12.1,50.2,12,50,12L50,12z"/>
</svg>
